<svg width="66" height="65" viewBox="0 0 66 65" fill="none" xmlns="http://www.w3.org/2000/svg">
<path d="M14.021 0C15.3474 0.057352 16.987 0.0165317 18.3293 0.0166387L26.25 0.0167465L51.3969 0.0218291C51.3873 1.55749 51.4937 3.95039 51.3846 5.3768C53.172 5.36428 54.9595 5.36263 56.7474 5.37188C56.7341 6.18781 56.7956 7.14728 56.7378 7.94459C58.5247 7.93175 60.3111 7.9302 62.0974 7.93993C62.0841 8.81696 62.1504 9.87546 62.0878 10.727C63.0893 10.7148 64.0914 10.7132 65.0929 10.7219L65.1009 24.2197L62.0851 24.2189C62.0996 25.075 62.106 25.9313 62.1039 26.7876L56.7351 26.7866C56.7474 27.7143 56.7539 28.6419 56.7544 29.5696L48.6031 29.5688C48.6165 30.4248 48.6229 31.2809 48.6219 32.1371H46.0351C46.048 33.0643 46.0544 33.992 46.0544 34.9197L43.2531 34.9191C43.2799 35.7527 43.2681 36.6482 43.2713 37.4866L40.6862 37.4871C40.6958 38.2982 40.7429 39.4773 40.6846 40.259C42.472 40.2461 44.26 40.2445 46.0474 40.2541C46.0335 41.1936 46.1025 42.3449 46.0373 43.2555C46.8965 43.2427 47.7562 43.241 48.6154 43.2501C48.6021 44.0639 48.6647 45.0285 48.6053 45.8235C49.5362 45.8112 50.4665 45.8096 51.3969 45.8181L51.3958 59.7388C51.3958 60.4151 51.4707 64.3147 51.3552 64.6357L51.2332 64.6646L13.5098 64.6624C13.4208 60.5981 13.5299 56.4957 13.4901 52.4275C13.4687 50.2367 13.4776 48.0143 13.5055 45.8246C14.3424 45.7716 15.4294 45.808 16.2846 45.8133C16.2724 44.9616 16.2739 44.1094 16.2892 43.2576C17.0593 43.2052 18.0637 43.2394 18.8524 43.2459C18.8383 42.2508 18.8396 41.2551 18.8563 40.26C20.3331 40.1664 22.6664 40.2456 24.2032 40.2499C24.1903 39.3275 24.1899 38.4052 24.2019 37.4834C23.3547 37.4925 22.4948 37.4839 21.6465 37.4834C21.6191 36.6279 21.6149 35.7714 21.634 34.9154C20.7153 34.9255 19.7834 34.9165 18.8635 34.9159C18.837 33.9888 18.8332 33.0611 18.852 32.1334C18.0046 32.1425 17.144 32.1339 16.2954 32.1334C16.2694 31.2777 16.2656 30.4214 16.2842 29.5654L8.16189 29.5668C8.13749 28.6391 8.13423 27.7111 8.1522 26.7834C6.38296 26.8026 4.58418 26.7853 2.81269 26.7847C2.78728 25.9285 2.78375 25.0717 2.8021 24.2153C1.88313 24.2255 0.950676 24.2166 0.0305297 24.216C-0.0198138 22.2971 0.00725642 20.2951 0.00736342 18.371C-0.000661577 15.8235 0.0046894 13.276 0.0234144 10.7286C0.84603 10.6743 1.9583 10.7118 2.80242 10.7169C2.7892 9.79344 2.79054 8.86987 2.80643 7.94651C3.35304 7.9042 4.17036 7.92768 4.73409 7.92838L8.15274 7.93341C8.14076 7.08179 8.14204 6.23002 8.15654 5.37841C8.71208 5.33582 9.54952 5.35979 10.1252 5.36075L13.5031 5.36712L13.4882 2.0353C13.4871 1.57274 13.456 0.495357 13.5365 0.101544C13.6757 -0.018778 13.827 0.006206 14.021 0ZM16.3085 7.95443L13.5074 7.95481C13.5187 8.87956 13.511 9.81645 13.5265 10.7366L5.37534 10.7371C5.3885 11.5926 5.3946 12.4482 5.39358 13.3038L2.80755 13.305C2.82301 15.1189 2.82853 16.933 2.82409 18.747C2.82446 19.324 2.86453 20.9219 2.80686 21.4273C3.6673 21.4158 4.52785 21.4135 5.38829 21.4203C5.38882 22.2112 5.43365 23.4519 5.38524 24.2085L16.3013 24.2028C16.3026 24.9291 16.345 26.0826 16.2996 26.7774C17.1563 26.7656 18.0131 26.7634 18.8699 26.7708C18.8706 27.5514 18.9166 28.815 18.867 29.5591C19.7952 29.5475 20.7234 29.5454 21.6516 29.5528C21.6526 30.2769 21.6954 31.438 21.6497 32.1275C22.5063 32.1157 23.3631 32.1131 24.2199 32.1211C24.2207 32.9038 24.2664 34.1621 24.217 34.909C25.2165 34.8972 26.216 34.8951 27.2155 34.9025C27.2165 35.628 27.2595 36.7868 27.214 37.4775C27.999 37.4652 28.7841 37.4625 29.5691 37.4711C29.5713 38.3988 29.5646 39.3409 29.5764 40.267L27.2041 40.2691C27.2125 41.0946 27.2674 42.4696 27.2031 43.2544L37.8988 43.2453C37.8855 42.2524 37.8849 41.2589 37.8978 40.2654L35.3421 40.2648C35.318 39.3366 35.3159 38.4079 35.3351 37.4796C36.1328 37.4363 36.9819 37.4582 37.7849 37.4657L37.87 37.4133C37.9374 36.9912 37.8876 35.4525 37.9031 34.9111C38.7928 34.8656 39.782 34.8924 40.6803 34.8993C40.6669 33.9765 40.6685 33.0525 40.6846 32.1296C41.5096 32.0836 42.4153 32.1093 43.2483 32.1173C43.2365 31.2651 43.2381 30.413 43.2531 29.5611C44.1428 29.5157 45.132 29.5425 46.0303 29.5494C46.0175 28.6261 46.0185 27.7027 46.0346 26.7794C46.8596 26.7336 47.7653 26.7595 48.5983 26.7672C48.5865 25.9151 48.5881 25.0628 48.6031 24.2107C49.8427 24.1516 51.3027 24.1956 52.5675 24.1975L59.5129 24.1976C59.5 23.2748 59.5005 22.3518 59.5155 21.429C60.3202 21.3795 61.2634 21.4109 62.0809 21.42C62.0616 18.7137 62.0611 16.0073 62.0803 13.301L59.5209 13.3015C59.4984 12.4457 59.4952 11.5895 59.5118 10.7337L51.3889 10.7347C51.3653 9.80698 51.3627 8.87891 51.3803 7.95106L48.6074 7.95197C48.5849 7.09586 48.5817 6.23938 48.5983 5.38312L16.2933 5.38649L16.3085 7.95443ZM46.0298 45.8294L18.8623 45.8331C18.8675 46.4831 18.9199 48.0245 18.8569 48.605L46.0111 48.5937C46.0736 47.9207 46.0201 46.5912 46.0298 45.8294ZM18.8562 59.305L46.0116 59.2948C46.0656 58.6656 46.0255 57.3752 46.0239 56.6888C46.0143 54.8522 46.0164 53.0155 46.0303 51.1788L18.8608 51.1821L18.8734 56.6476C18.8745 57.2982 18.918 58.7256 18.8562 59.305Z" fill="#FEFEFE"/>
<path d="M54.3915 13.2695L56.7493 13.2951C56.7386 14.2231 56.7493 15.1513 56.7814 16.0789C57.6973 16.0647 58.6137 16.0639 59.5297 16.0766C59.5264 17.0079 59.5302 17.9392 59.5409 18.8705C58.6132 18.8733 57.686 18.8715 56.7584 18.865C56.7204 19.4341 56.8097 20.9674 56.7209 21.3982L56.6316 21.4386L53.9683 21.4355C53.9175 20.6092 53.9405 19.6938 53.9544 18.8662L51.3987 18.8663C51.3415 18.0225 51.372 16.9325 51.3859 16.085C52.1723 16.0322 53.1444 16.0486 53.9459 16.0424C53.9657 15.3839 53.8645 13.9283 53.9828 13.3736C54.1395 13.2546 54.1572 13.292 54.3915 13.2695ZM53.9978 18.8624C54.888 18.8475 55.8269 18.817 56.7134 18.825C56.7648 17.9565 56.7107 16.974 56.7359 16.0834C55.8264 16.0851 54.8869 16.0991 53.9796 16.0841C53.9453 16.8653 53.9598 18.0743 53.9978 18.8624Z" fill="#F7A93D"/>
<path d="M8.59756 13.2656L10.7404 13.2939C10.7297 14.2218 10.7403 15.1499 10.772 16.0773C11.688 16.0628 12.6042 16.0622 13.5203 16.0754C13.5121 17.0004 13.5244 17.9423 13.5273 18.8687C12.6011 18.8717 11.6748 18.8699 10.7486 18.8631C10.6982 19.6154 10.8121 20.6562 10.7227 21.3645C10.5924 21.4703 10.5522 21.4317 10.3392 21.4377L8.16881 21.4329C8.14019 20.577 8.1373 19.7205 8.16019 18.8644L5.38173 18.8659C5.35856 17.9376 5.3561 17.009 5.37445 16.0806C6.21049 16.0259 7.29654 16.0469 8.15115 16.0394C8.17057 15.3887 8.06973 13.9235 8.18786 13.3719C8.34477 13.2526 8.36371 13.2896 8.59756 13.2656ZM8.2039 18.8617C9.02545 18.8452 9.88552 18.8157 10.7041 18.8232C10.7559 17.9554 10.7018 16.9715 10.7267 16.0814C9.88444 16.0827 9.02566 16.0928 8.18491 16.0818C8.1496 16.8589 8.16522 18.0771 8.2039 18.8617Z" fill="#F7A93D"/>
</svg>
