<svg width="74" height="74" viewBox="0 0 74 74" fill="none" xmlns="http://www.w3.org/2000/svg">
<path d="M14.0384 0C16.4423 0.101811 19.5261 0.0163167 21.9709 0.0162632L37.9324 0.0219352C37.9185 0.901047 37.9848 1.95339 37.9222 2.80875C39.7091 2.79602 41.496 2.79436 43.2824 2.80388C43.2685 3.68267 43.3353 4.73769 43.2727 5.59145C44.132 5.57871 44.9917 5.57689 45.8509 5.58593C45.8365 6.40165 45.8996 7.36262 45.8402 8.15929C46.7711 8.1473 47.7015 8.14548 48.6318 8.15393C48.6222 9.69013 48.7287 12.0808 48.6195 13.5093C49.4793 13.4983 50.3396 13.4964 51.1998 13.5038L51.2073 37.9145H48.6206C48.6302 38.7251 48.6784 39.9063 48.6201 40.6874C49.4803 40.6751 50.3406 40.673 51.2009 40.6816C51.187 41.559 51.2533 42.6172 51.1907 43.4694C52.1211 43.4566 53.052 43.4545 53.9824 43.4641C53.9695 44.2778 54.0321 45.243 53.9727 46.0374C54.9036 46.0246 55.834 46.023 56.7649 46.0316C56.7505 46.971 56.82 48.1229 56.7542 49.0334C57.6134 49.0206 58.4726 49.019 59.3318 49.0281C59.3201 49.791 59.3778 50.6379 59.3238 51.3874C60.2542 51.3746 61.1845 51.373 62.1149 51.3821C62.1005 52.3205 62.1705 53.4739 62.1042 54.3834C62.9634 54.3706 63.8232 54.369 64.6824 54.3781C64.669 55.1924 64.7321 56.1564 64.6733 56.9509C65.6036 56.9386 66.5345 56.937 67.4649 56.9461C67.4505 57.8235 67.5179 58.8812 67.4547 59.7334C68.314 59.7206 69.1737 59.719 70.0329 59.7281C70.0185 60.606 70.0848 61.6616 70.0222 62.5149C71.0243 62.5031 72.0258 62.5015 73.0278 62.5101L73.0359 67.8756L70.0195 67.8745C70.034 68.7305 70.0404 69.5865 70.0393 70.4431L67.4521 70.4425C67.4654 71.3702 67.4713 72.2979 67.4708 73.2256L62.1096 73.2224C62.0817 72.2947 62.0775 71.367 62.0973 70.4388C61.1787 70.4495 60.2462 70.4404 59.327 70.4399C59.3003 69.5839 59.296 68.7273 59.3147 67.8713C58.4673 67.8804 57.607 67.8719 56.7585 67.8713C56.7317 66.9442 56.728 66.0165 56.7467 65.0893C55.8287 65.0995 54.8962 65.0904 53.977 65.0899C53.9503 64.2339 53.9465 63.3773 53.9647 62.5213C53.0467 62.5315 52.1141 62.5224 51.1945 62.5219C51.1683 61.5947 51.1645 60.667 51.1827 59.7393C50.3358 59.749 49.475 59.7399 48.6265 59.7393C48.5997 58.8122 48.596 57.8845 48.6153 56.9573C47.6967 56.9675 46.7642 56.9584 45.845 56.9579C45.8172 56.0869 45.8226 55.2619 45.8322 54.3899L43.2759 54.3893C43.2497 53.391 43.246 52.3916 43.2653 51.3933C39.9183 51.4308 36.5039 51.396 33.1532 51.396L13.5296 51.3944C13.504 50.5967 13.5103 49.8381 13.5192 49.0393C11.6787 49.0591 9.80785 49.0409 7.96499 49.0404C7.93979 48.0416 7.93647 47.0422 7.95504 46.0433C7.10819 46.0524 6.24721 46.0439 5.39918 46.0433C5.3719 45.1702 5.37666 44.349 5.38709 43.4748C4.46828 43.4855 3.53567 43.4764 2.61569 43.4759C2.55823 41.6729 2.58984 39.7218 2.60525 37.9108C1.7576 37.921 0.894645 37.9119 0.0456531 37.9113C-0.0729564 32.5768 0.0840126 27.1863 0.0248951 21.8463C-0.00565341 19.0833 0.00665091 16.2743 0.0402489 13.5105C0.814394 13.4598 1.81383 13.4946 2.60584 13.5018C2.58738 11.7214 2.58829 9.94094 2.60846 8.16057C3.44472 8.10734 4.53286 8.14382 5.38757 8.14923C5.37532 7.29735 5.37682 6.44531 5.39218 5.59348C6.16354 5.54137 7.16549 5.57507 7.95525 5.58133C7.94236 4.65771 7.94375 3.73393 7.95948 2.8103C8.52963 2.76713 9.37525 2.79227 9.96621 2.79302L13.5197 2.79848C13.513 2.23234 13.4608 0.545111 13.5531 0.105073C13.7502 -0.0232196 13.7656 0.018725 14.0384 0ZM13.5424 8.168L7.96012 8.16854C7.98002 9.935 7.94124 11.7651 7.98002 13.518L5.39212 13.5184C5.45825 18.9827 5.40411 24.5485 5.40389 30.0201L5.40753 35.2716C5.40839 35.8949 5.45236 37.3555 5.39127 37.9054C6.25149 37.8947 7.11177 37.8926 7.97205 37.8985L7.97863 41.5311C7.97992 42.0164 8.00827 43.019 7.95916 43.4689C9.81823 43.4566 11.6774 43.4545 13.5365 43.4625C13.5376 44.1949 13.5789 45.3345 13.5341 46.0364L37.7146 46.0262L37.85 46.0048C37.9714 45.7897 37.9072 43.8809 37.9195 43.4705C39.5272 43.3865 41.5886 43.4555 43.2604 43.4331C43.2487 41.5911 43.2513 39.7485 43.2679 37.9065C44.0934 37.8621 45.0003 37.8894 45.8338 37.8985L45.8209 24.071C45.8209 20.5752 45.7846 17.0057 45.8333 13.5147L43.2733 13.5154C43.2455 11.732 43.2428 9.94833 43.2653 8.16485L37.9238 8.16667C37.9019 7.31035 37.8987 6.4536 37.9153 5.59712L13.5287 5.6007L13.5424 8.168ZM43.2695 49.0334C44.1298 49.0222 44.9901 49.0201 45.8498 49.0265C45.852 49.6963 45.89 50.7444 45.8493 51.3869C46.777 51.3751 47.7047 51.373 48.6329 51.3805C48.6334 52.2285 48.6821 53.5713 48.6297 54.3834C49.4868 54.3711 50.3438 54.369 51.2004 54.377C51.2014 55.0993 51.2442 56.2634 51.1982 56.9509C52.1265 56.9391 53.0547 56.937 53.9829 56.9445C53.9834 57.7283 54.0295 58.9855 53.9802 59.7329C54.9085 59.7211 55.8367 59.719 56.7649 59.7265C56.7654 60.5076 56.8115 61.7734 56.7622 62.5154C57.6188 62.5031 58.4758 62.501 59.3329 62.509C59.3334 63.2313 59.3762 64.396 59.3302 65.0829C60.2585 65.0711 61.1867 65.069 62.1149 65.0765C62.1154 65.8645 62.1604 67.1111 62.1117 67.8644L67.0412 67.8553C67.2793 67.8494 67.29 67.8922 67.4296 67.774C67.4713 67.1908 67.4435 66.414 67.4398 65.8132C67.4333 64.7154 67.4355 63.6181 67.4473 62.5208L64.6743 62.5219C64.6503 61.5947 64.6476 60.667 64.6647 59.7393H62.1063C62.0823 58.8122 62.0791 57.8845 62.0967 56.9573L59.3254 56.9579C59.3013 56.1019 59.2976 55.2453 59.3147 54.3893H56.7563C56.7312 53.3905 56.7285 52.3916 56.7473 51.3933L53.9754 51.3939C53.9524 50.609 53.9492 49.8242 53.9653 49.0393L51.1923 49.0399C51.1672 48.041 51.1645 47.0422 51.1827 46.0433H48.6243C48.6013 45.1873 48.5981 44.3313 48.6153 43.4753L43.2909 43.4737C43.2476 44.7294 43.3022 46.0246 43.2883 47.2829C43.2824 47.8019 43.3209 48.537 43.2695 49.0334Z" fill="#FEFEFE"/>
<path d="M19.2917 8.12891C23.497 8.22472 27.9247 8.13741 32.1543 8.15293C32.1495 9.13262 32.1425 10.1792 32.1875 11.1528C34.1028 11.1391 36.0175 11.1381 37.9328 11.1496C37.9221 11.9358 37.9334 12.722 37.9665 13.5075C38.8108 13.4948 39.6555 13.4941 40.5003 13.5053C40.4832 15.2056 40.4505 17.399 40.5329 19.0714C41.4488 19.0591 42.3653 19.0582 43.2818 19.0686C43.2866 23.5275 43.2192 28.1185 43.2941 32.5629C42.3653 32.5656 41.4365 32.564 40.5083 32.5575C40.4243 33.9908 40.5008 36.4234 40.5078 37.9124C39.6518 37.915 38.7958 37.9134 37.9398 37.907C37.8927 38.6967 37.9344 39.8779 37.9371 40.697L32.1618 40.6895C32.1356 41.117 32.2281 43.2912 32.0831 43.478L18.8809 43.4758C18.8432 42.5588 18.86 41.6087 18.8733 40.6917L13.5319 40.6938C13.4926 39.7779 13.5101 38.8245 13.5236 37.9086L10.7476 37.9108C10.6916 36.1795 10.7173 34.2968 10.7415 32.5586L7.96229 32.5613C7.9181 30.6471 7.94201 28.6656 7.94196 26.7469L7.95614 19.0737C8.80395 19.0238 9.86871 19.0446 10.7326 19.038C10.7191 17.1956 10.7214 15.3531 10.7395 13.5108C11.5855 13.4598 12.6535 13.48 13.5161 13.4725C13.5314 12.7095 13.5126 11.9329 13.5279 11.1578C14.1426 11.114 15.0218 11.1419 15.656 11.1419L18.8644 11.1178C18.8834 10.4635 18.7855 8.75346 18.9023 8.22858C19.0588 8.1143 19.0638 8.15047 19.2917 8.12891ZM13.5438 19.0801C12.6289 19.0802 11.6736 19.0945 10.762 19.0753C10.7262 20.5165 10.7157 22.0788 10.7539 23.5211C10.8324 26.4857 10.6269 29.6062 10.7866 32.5533C11.703 32.542 12.6194 32.5404 13.5357 32.55C13.5375 34.2021 13.4807 36.2806 13.5687 37.9033C15.3413 37.8899 17.1138 37.8883 18.8864 37.8984C18.886 38.8465 18.8885 39.7372 18.9195 40.6847L27.5186 40.6746C28.9309 40.6746 30.3597 40.6735 31.7734 40.658C31.9617 40.6558 32.0205 40.6607 32.1281 40.5574L32.1398 40.4894C32.1329 39.6329 32.1174 38.7609 32.142 37.9059C33.8716 37.8139 36.1037 37.8926 37.9104 37.8669C37.897 36.0976 37.8991 34.3279 37.9173 32.5581C38.7589 32.5147 39.6336 32.5233 40.4789 32.5201C40.4527 28.1612 40.3965 23.4178 40.4875 19.077L37.9232 19.0778C37.8932 17.223 37.8922 15.3678 37.92 13.5129L32.1511 13.5139C32.1265 12.7294 32.1233 11.9443 32.142 11.1596C27.805 11.1633 23.219 11.2346 18.8961 11.1595C18.8693 11.9332 18.8867 12.7403 18.8931 13.5174C17.1485 13.5181 15.2803 13.5534 13.5459 13.511C13.4909 15.2712 13.5303 17.3067 13.5438 19.0801Z" fill="#100923"/>
<path d="M32.6701 19.0469C33.4913 19.0635 34.3296 19.0624 35.1525 19.07C35.1412 19.9979 35.1519 20.9259 35.184 21.8534C36.0999 21.8405 37.0164 21.8397 37.9323 21.8509C37.928 24.5457 37.9024 27.3055 37.9441 29.9953L35.16 29.9899C35.1161 30.7114 35.1546 31.814 35.1573 32.5635C34.16 32.5673 33.1623 32.5651 32.165 32.5571C32.134 33.0295 32.2201 35.0096 32.111 35.3172L31.9901 35.3466L29.5853 35.3429C29.5327 34.4847 29.561 33.4206 29.5747 32.5598C30.3709 32.5079 31.3258 32.524 32.1345 32.5186C32.15 31.6856 32.1297 30.835 32.1447 29.9897C33.0606 29.9371 34.197 29.9588 35.1295 29.9514C35.1118 27.2538 35.115 24.556 35.1386 21.8584L32.1527 21.861C32.1233 21.3675 32.0907 19.5369 32.1714 19.1541C32.3694 19.0237 32.394 19.0661 32.6701 19.0469Z" fill="#FA0881"/>
</svg>
