<svg width="74" height="63" viewBox="0 0 74 63" fill="none" xmlns="http://www.w3.org/2000/svg">
<path d="M3.54027 0C5.83729 0.093625 8.67948 0.0152471 11.0084 0.0149261L25.1313 0.0162094L70.4469 0.0217736C70.4335 0.900993 70.4988 1.95334 70.4367 2.80891C71.3671 2.79719 72.298 2.79543 73.2283 2.80356L73.2364 48.6153L70.4346 48.6142C70.4463 49.6131 70.4528 50.6119 70.4538 51.6113L58.7106 51.6102C58.1515 51.6102 54.7173 51.5776 54.445 51.6418C54.3471 51.7857 54.3889 51.8569 54.3921 52.0725C54.4001 52.6717 54.4274 53.3645 54.384 53.9551C55.2438 53.9428 56.1046 53.9412 56.9649 53.9492L56.9718 62.3113L16.511 62.3081C16.4388 59.6299 16.4721 56.6467 16.5042 53.9562C17.2609 53.9006 18.2922 53.9391 19.0708 53.9471C19.0601 53.1671 19.0597 52.387 19.0695 51.607C13.7635 51.6669 8.34564 51.6097 3.02929 51.6081C3.00452 50.6092 3.00131 49.6093 3.01971 48.6099C2.03066 48.6222 1.02427 48.6121 0.0337705 48.6115C-0.0258285 46.2838 0.0115134 43.826 0.0119414 41.4912L0.0127447 29.1691L0.0122092 12.4155C0.0123162 9.22495 -0.0139519 5.99548 0.0270291 2.80977C0.917644 2.75439 2.1077 2.79441 3.02025 2.79976C3.01345 2.234 2.96124 0.544254 3.05379 0.104966C3.25083 -0.0232738 3.26742 0.018618 3.54027 0ZM8.39421 8.16859L5.37863 8.1679C5.45214 14.8017 5.39078 21.5408 5.39056 28.182L5.39308 34.747C5.39393 35.4789 5.44583 37.277 5.37799 37.9046L64.5715 37.8939L67.6488 37.896L67.6355 21.2309C67.6355 16.9051 67.5878 12.4777 67.6478 8.16426L65.0883 8.16496C65.0659 7.23764 65.0626 6.30995 65.0798 5.38253L8.37865 5.3859L8.39421 8.16859ZM5.37794 43.2546C6.38101 43.2439 7.38413 43.2412 8.38726 43.2476C8.38753 43.9538 8.43883 45.3935 8.38207 46.0323L65.0803 46.027C65.0701 45.171 65.0691 44.315 65.0782 43.459L65.1135 43.3172C65.4024 43.1599 67.1962 43.2412 67.6483 43.2476C67.6371 42.3965 67.6365 41.5447 67.6472 40.693L5.38366 40.6962C5.38891 41.3083 5.43738 42.7046 5.37794 43.2546ZM29.7797 48.6148C29.7847 49.3113 29.8419 50.9784 29.7744 51.6001L43.2325 51.5894C43.2962 50.8842 43.2453 49.3937 43.2518 48.611L29.7797 48.6148ZM21.8612 53.9642C21.8668 54.6897 21.9239 56.2931 21.8559 56.9506L51.579 56.9404C51.6422 56.2364 51.5913 54.7421 51.5978 53.9605L21.8612 53.9642Z" fill="#FEFEFE"/>
<path d="M59.9628 8.0625L62.3206 8.08802C62.3099 9.01608 62.3205 9.94431 62.3526 10.8719C63.2686 10.8577 64.185 10.8569 65.1009 10.8695C65.0977 11.8009 65.1015 12.7322 65.1122 13.6635C64.1845 13.6663 63.2573 13.6644 62.3296 13.658C62.2917 14.227 62.381 15.7603 62.2922 16.1911L62.2029 16.2315L59.5396 16.2285C59.4888 15.4022 59.5118 14.4868 59.5257 13.6592L56.97 13.6593C56.9128 12.8154 56.9433 11.7255 56.9572 10.878C57.7436 10.8252 58.7157 10.8416 59.5171 10.8354C59.5369 10.1769 59.4358 8.7213 59.5541 8.16661C59.7108 8.04757 59.7285 8.08497 59.9628 8.0625ZM59.569 13.6554C60.4593 13.6405 61.3982 13.61 62.2847 13.6179C62.3361 12.7494 62.282 11.7669 62.3072 10.8764C61.3977 10.878 60.4582 10.8921 59.5509 10.8771C59.5166 11.6583 59.5311 12.8672 59.569 13.6554Z" fill="#E575A8"/>
<path d="M52.9003 22.1875L55.2581 22.213C55.2474 23.1411 55.258 24.0693 55.2901 24.9969C56.2061 24.9827 57.1225 24.9819 58.0384 24.9945C58.0352 25.9259 58.039 26.8572 58.0497 27.7885C57.122 27.7913 56.1948 27.7894 55.2671 27.783C55.2292 28.352 55.3185 29.8853 55.2297 30.3161L55.1404 30.3565L52.4771 30.3535C52.4263 29.5272 52.4493 28.6118 52.4632 27.7842L49.9075 27.7843C49.8503 26.9404 49.8808 25.8505 49.8947 25.003C50.6811 24.9502 51.6532 24.9666 52.4546 24.9604C52.4744 24.3019 52.3733 22.8463 52.4916 22.2916C52.6483 22.1726 52.666 22.21 52.9003 22.1875ZM52.5065 27.7804C53.3968 27.7655 54.3357 27.735 55.2222 27.7429C55.2736 26.8744 55.2195 25.8919 55.2447 25.0014C54.3352 25.003 53.3957 25.0171 52.4884 25.0021C52.4541 25.7833 52.4686 26.9922 52.5065 27.7804Z" fill="#CDAB7D"/>
<path d="M34.9247 13.4141L37.2825 13.4396C37.2718 14.3676 37.2825 15.2959 37.3146 16.2235C38.2305 16.2093 39.1469 16.2085 40.0629 16.2211C40.0596 17.1524 40.0634 18.0838 40.0741 19.015C39.1464 19.0179 38.2193 19.016 37.2916 19.0095C37.2536 19.5786 37.3429 21.1119 37.2541 21.5427L37.1648 21.5831L34.5015 21.58C34.4507 20.7537 34.4737 19.8383 34.4876 19.0108L31.9319 19.0109C31.8747 18.167 31.9052 17.077 31.9191 16.2296C32.7055 16.1768 33.6776 16.1931 34.4791 16.187C34.4989 15.5284 34.3977 14.0729 34.516 13.5182C34.6727 13.3991 34.6904 13.4365 34.9247 13.4141ZM34.531 19.007C35.4212 18.9921 36.3601 18.9615 37.2466 18.9695C37.298 18.101 37.2439 17.1185 37.2691 16.2279C36.3596 16.2296 35.4201 16.2436 34.5128 16.2286C34.4785 17.0099 34.493 18.2188 34.531 19.007Z" fill="#4361EE"/>
<path d="M19.0888 26.2539L21.4465 26.2794C21.4358 27.2075 21.4465 28.1357 21.4786 29.0633C22.3945 29.0491 23.311 29.0483 24.2269 29.0609C24.2237 29.9923 24.2275 30.9236 24.2382 31.8549C23.3105 31.8577 22.3833 31.8558 21.4556 31.8494C21.4176 32.4184 21.507 33.9518 21.4182 34.3825L21.3288 34.4229L18.6656 34.4199C18.6148 33.5936 18.6378 32.6782 18.6517 31.8506L16.096 31.8507C16.0387 31.0068 16.0692 29.9169 16.0832 29.0694C16.8696 29.0166 17.8417 29.033 18.6431 29.0268C18.6629 28.3683 18.5618 26.9127 18.68 26.358C18.8368 26.239 18.8545 26.2764 19.0888 26.2539ZM18.695 31.8468C19.5853 31.8319 20.5242 31.8014 21.4107 31.8093C21.462 30.9408 21.408 29.9584 21.4332 29.0678C20.5237 29.0695 19.5842 29.0835 18.6768 29.0685C18.6426 29.8497 18.657 31.0586 18.695 31.8468Z" fill="#D000FE"/>
<path d="M40.4882 27.1094L42.8459 27.1349C42.8352 28.063 42.8459 28.9912 42.878 29.9188C43.794 29.9046 44.7104 29.9038 45.6263 29.9164C45.6231 30.8477 45.6269 31.7791 45.6376 32.7103C44.7099 32.7132 43.7827 32.7113 42.855 32.7048C42.8171 33.2739 42.9064 34.8072 42.8176 35.238L42.7282 35.2784L40.065 35.2753C40.0142 34.449 40.0372 33.5337 40.0511 32.7061L37.4954 32.7062C37.4382 31.8623 37.4687 30.7724 37.4826 29.9249C38.269 29.8721 39.2411 29.8884 40.0425 29.8823C40.0623 29.2237 39.9612 27.7682 40.0795 27.2135C40.2362 27.0944 40.2539 27.1318 40.4882 27.1094ZM40.0944 32.7023C40.9847 32.6874 41.9236 32.6568 42.8101 32.6648C42.8615 31.7963 42.8074 30.8138 42.8326 29.9233C41.9231 29.9249 40.9836 29.9389 40.0762 29.924C40.042 30.7052 40.0565 31.9141 40.0944 32.7023Z" fill="#F7A93D"/>
<path d="M11.5986 8.0625L13.9563 8.08802C13.9456 9.01608 13.9563 9.94431 13.9884 10.8719C14.9043 10.8577 15.8208 10.8569 16.7367 10.8695C16.7335 11.8009 16.7372 12.7322 16.7479 13.6635C15.8202 13.6663 14.8931 13.6644 13.9654 13.658C13.9274 14.227 14.0167 15.7603 13.9279 16.1911L13.8386 16.2315L11.1754 16.2285C11.1245 15.4022 11.1475 14.4868 11.1615 13.6592L8.60576 13.6593C8.54851 12.8154 8.57901 11.7255 8.59292 10.878C9.37937 10.8252 10.3515 10.8416 11.1529 10.8354C11.1727 10.1769 11.0716 8.7213 11.1898 8.16661C11.3466 8.04757 11.3642 8.08497 11.5986 8.0625ZM11.2048 13.6554C12.095 13.6405 13.034 13.61 13.9204 13.6179C13.9718 12.7494 13.9178 11.7669 13.9429 10.8764C13.0334 10.878 12.094 10.8921 11.1866 10.8771C11.1524 11.6583 11.1668 12.8672 11.2048 13.6554Z" fill="#100923"/>
</svg>
