<svg width="107" height="107" viewBox="0 0 107 107" fill="none" xmlns="http://www.w3.org/2000/svg">
<path d="M27.5359 15.0397C29.2909 14.9581 31.565 15.0275 33.3695 15.0278L44.6218 15.0285L76.1276 15.0325C76.1271 17.691 76.0779 20.5313 76.1367 23.1779C75.292 23.1781 74.4092 23.1913 73.5677 23.1735C73.5431 24.1622 73.5618 25.1851 73.5671 26.1766L70.7664 26.1769C70.7873 27.9426 70.7461 29.7735 70.7862 31.5246C69.8713 31.5246 68.9164 31.5389 68.0042 31.5197C67.9603 33.2305 67.9876 35.1553 68.0047 36.8738C67.1578 36.8742 66.2794 36.8866 65.4357 36.8701C65.4228 37.728 65.4228 38.5859 65.4357 39.4437C64.5144 39.4452 63.5685 39.4351 62.6494 39.4488C62.6435 40.3745 62.6451 41.3003 62.6547 42.2259C61.8035 42.2273 60.9304 42.2179 60.0814 42.2308C60.075 43.1567 60.0766 44.0825 60.0862 45.0084C59.1644 45.0094 58.219 44.999 57.2994 45.013C57.2935 45.8671 57.2951 46.7213 57.3042 47.5754C56.4535 47.577 55.5826 47.5684 54.7335 47.5806C54.7196 48.4317 54.7089 49.5071 54.7624 50.3481C55.6077 50.3344 56.453 50.3334 57.2983 50.3451C57.2881 51.2023 57.2988 52.0595 57.3304 52.9162C58.2469 52.9013 59.1633 52.9004 60.0803 52.9135C60.0701 53.8419 60.0808 54.7705 60.1124 55.6982C60.9572 55.6832 61.803 55.6827 62.6483 55.6961C62.6381 56.5526 62.6488 57.4097 62.6804 58.2662C63.5969 58.2512 64.5133 58.2501 65.4298 58.2635C65.4292 59.2105 65.4314 60.1007 65.4619 61.0482C66.3066 61.0354 67.1514 61.0337 67.9962 61.045C67.9978 62.765 68.0465 64.6969 67.9962 66.3939C68.9233 66.3848 69.8505 66.3843 70.7776 66.3923L70.7841 70.0506C70.7857 70.5386 70.8135 71.5096 70.7664 71.9627C71.6978 71.9515 72.6298 71.9499 73.5612 71.9568C73.5607 72.9043 73.5607 73.7962 73.5944 74.7437C74.4392 74.7319 75.2839 74.7308 76.1282 74.7404C76.1276 77.4042 76.0779 80.2392 76.1357 82.8864L27.5406 82.8847C27.5092 80.1723 27.5079 77.4598 27.5365 74.7474C28.4612 74.7201 29.3863 74.7073 30.3114 74.71C30.3084 73.8106 30.2956 72.8631 30.3205 71.9654C31.1441 71.9189 32.0515 71.9461 32.8831 71.9552C32.8678 70.1282 32.8472 68.2241 32.8844 66.4003C33.7715 66.3538 34.762 66.38 35.658 66.3859C35.6471 64.6086 35.6507 62.8308 35.6687 61.053C36.5118 61.0113 37.3835 61.0177 38.2299 61.0134C38.2268 60.1194 38.2119 59.1618 38.2397 58.2705C39.1639 58.2421 40.0884 58.2287 41.013 58.2298C41.0108 57.4198 40.9924 56.5093 41.0244 55.7046C41.8707 55.6634 42.7317 55.6677 43.5801 55.6634C43.5769 54.7694 43.5619 53.8119 43.5898 52.9206C44.5139 52.892 45.4384 52.8784 46.363 52.8799C46.3605 52.0633 46.3442 51.1666 46.373 50.3537C47.2128 50.3105 48.0854 50.3189 48.9289 50.3161C48.9227 49.4124 48.9108 48.4768 48.9312 47.5744L46.3708 47.5748C46.3479 46.7296 46.345 45.8839 46.3622 45.0386L46.3489 45.015C45.5552 44.972 44.4104 45.0081 43.5893 45.0077C43.5658 44.0909 43.5627 43.1737 43.5801 42.2567L43.5668 42.2331C42.8303 42.1937 41.7809 42.226 41.0201 42.2254C40.9978 41.2978 40.9953 40.3698 41.0124 39.4421L38.2441 39.4417C38.2209 38.5852 38.2186 37.7283 38.2373 36.8718L35.6746 36.8723C35.6427 35.0887 35.6412 33.3046 35.6702 31.521L32.8924 31.5231C32.8631 29.7399 32.8599 27.9564 32.8828 26.1731L30.3255 26.1729C30.3009 25.1738 30.299 24.1741 30.32 23.1749L27.5424 23.177C27.4822 20.5665 27.4918 17.6555 27.5359 15.0397ZM41.0247 36.8523C41.8484 36.8551 42.7438 36.8753 43.5618 36.8526C44.5062 36.8626 45.4508 36.8636 46.3953 36.8556C47.2219 36.8562 48.0892 36.8703 48.9123 36.8532C49.8566 36.8623 50.8009 36.8632 51.7453 36.856C52.708 36.8568 53.7315 36.8757 54.6896 36.8531C55.5628 36.8613 56.4359 36.8622 57.309 36.856C58.2035 36.8566 59.1483 36.8731 60.0386 36.8528C60.9069 36.8616 61.7757 36.8588 62.644 36.8444C63.4444 36.8815 64.5813 36.8369 65.4068 36.8307C65.3939 35.0607 65.3961 33.2906 65.4143 31.5206C66.1761 31.4674 67.1937 31.488 67.9748 31.4826C67.9635 29.7128 67.9646 27.9428 67.9785 26.173L35.6705 26.1767C35.7091 27.9289 35.63 29.7772 35.7154 31.5161C36.5604 31.5032 37.4054 31.5025 38.2503 31.5139C38.2359 33.155 38.2026 35.2524 38.2838 36.8658C39.1914 36.8509 40.1157 36.8561 41.0247 36.8523ZM46.3935 55.7078C45.4659 55.7105 44.5384 55.7084 43.6109 55.7019C43.5667 56.4301 43.6046 57.5199 43.6077 58.2747L41.0432 58.2694C40.9934 59.0435 41.0362 60.2516 41.0393 61.0578L38.2599 61.0519C38.1709 62.4943 38.2564 64.8371 38.2363 66.3656L38.2398 66.3907C39.1749 66.4014 40.11 66.3998 41.045 66.387C41.8684 66.388 42.7422 66.4035 43.5615 66.3843C44.5061 66.395 45.4507 66.396 46.3953 66.3875C47.223 66.388 48.0867 66.4019 48.9113 66.3854C49.856 66.395 50.8007 66.3955 51.7453 66.388C52.7066 66.3886 53.7325 66.4084 54.6886 66.3843C55.5622 66.3939 56.4359 66.395 57.3095 66.3875C58.2025 66.3886 59.1494 66.4051 60.0386 66.3848C60.9122 66.3939 61.7864 66.395 62.6601 66.388C63.4289 66.388 64.6925 66.4314 65.4094 66.3677C65.3897 64.5958 65.3918 62.8244 65.4164 61.0525L62.6456 61.0546C62.5911 60.1933 62.6216 59.134 62.6349 58.2705H60.0787C60.0487 57.4145 60.045 56.5585 60.0675 55.7025L57.2962 55.7046C57.24 54.8502 57.2716 53.7775 57.2849 52.9207L54.7276 52.9205C54.6987 52.0655 54.6955 51.2098 54.7169 50.3545C52.7977 50.3637 50.8786 50.363 48.9596 50.3526C48.9163 51.0833 48.9547 52.1676 48.9584 52.9246C48.1033 52.9272 47.2482 52.9255 46.3931 52.9195C46.3425 53.691 46.3864 54.9176 46.3935 55.7078ZM73.5425 17.827L70.7707 17.8308L70.7857 20.3978L62.6344 20.3982C62.643 21.1548 62.6949 22.4562 62.6333 23.1705L65.3308 23.1597C68.0668 23.1733 70.8028 23.1646 73.5388 23.1335C73.5275 21.3647 73.5286 19.5959 73.5425 17.827ZM30.3202 80.0947C31.1746 80.0846 32.0292 80.0808 32.8837 80.084C32.8709 79.1606 32.8714 78.2367 32.8851 77.3133C34.4036 77.2293 36.5344 77.3063 38.0993 77.3026L41.0162 77.3047C41.0042 76.4535 41.0037 75.6023 41.0147 74.7511C37.5216 74.756 33.8261 74.8121 30.3433 74.7495C30.2951 75.9699 30.3547 77.2405 30.3387 78.4635C30.3325 78.929 30.3706 79.6523 30.3202 80.0947ZM73.5479 74.7501L62.6381 74.7544C62.6435 75.3696 62.6922 76.7585 62.6333 77.3127L70.7782 77.3058C70.7792 78.0917 70.8247 79.342 70.776 80.0947C71.6754 80.0862 72.5742 80.0819 73.4735 80.0835C73.6142 79.8625 73.5382 75.4654 73.5479 74.7501ZM32.8828 17.8271L30.3251 17.8307C30.3295 19.4426 30.2741 21.5825 30.365 23.1694L41.013 23.1614C41.0046 22.2392 41.0052 21.3169 41.0148 20.3947L32.8908 20.3969C32.8691 19.5405 32.8665 18.6837 32.8828 17.8271ZM48.942 74.7544C48.9474 75.3685 48.9963 76.7595 48.9371 77.3127L54.6923 77.3026C54.7528 76.6322 54.6977 75.4723 54.7105 74.7511L48.942 74.7544ZM54.6918 23.1597C54.7544 22.4828 54.7014 21.1586 54.7111 20.3947L48.9426 20.3984C48.9479 21.0509 49.0004 22.5874 48.9375 23.1704L54.6918 23.1597Z" fill="#FEFEFE"/>
<path d="M43.4209 36.3633C44.3654 36.3733 45.31 36.3742 46.2544 36.3663C47.081 36.3669 47.9483 36.381 48.7714 36.3639C49.7157 36.373 50.6601 36.3739 51.6044 36.3667C52.5671 36.3675 53.5906 36.3864 54.5488 36.3638C55.4219 36.3719 56.295 36.3729 57.1681 36.3667C57.1285 37.2143 57.1398 38.0975 57.1387 38.9489L57.1275 41.7236L54.5707 41.7309C54.5621 42.6558 54.5584 43.5808 54.5595 44.5057L51.5747 44.5126L51.559 47.0734C50.6701 47.0973 49.6896 47.0761 48.7903 47.0851L46.2299 47.0854C46.207 46.2402 46.2041 45.3946 46.2213 44.5493L46.2081 44.5257C45.4143 44.4827 44.2695 44.5188 43.4484 44.5183C43.4249 43.6016 43.4218 42.6844 43.4392 41.7674L43.426 41.7438C42.6894 41.7044 41.64 41.7367 40.8792 41.7361C40.8569 40.8084 40.8544 39.8805 40.8715 38.9528C41.7274 38.9431 42.5834 38.942 43.4394 38.9493L43.4209 36.3633Z" fill="#D000FE"/>
<path d="M43.4209 36.3633C44.3654 36.3733 45.31 36.3742 46.2544 36.3663C47.081 36.3669 47.9483 36.381 48.7714 36.3639C49.7157 36.373 50.6601 36.3739 51.6044 36.3667C51.5645 37.2142 51.5757 38.0975 51.5746 38.9488C51.5699 39.8383 51.5861 40.8403 51.5537 41.7229C50.6658 41.7232 49.6719 41.701 48.7928 41.731C47.9357 41.7445 47.0785 41.7445 46.2215 41.7311C45.786 41.7274 43.7089 41.6851 43.4392 41.7674L43.426 41.7438C42.6894 41.7044 41.64 41.7367 40.8792 41.7361C40.8569 40.8084 40.8544 39.8805 40.8715 38.9528C41.7274 38.9431 42.5834 38.942 43.4394 38.9493L43.4209 36.3633Z" fill="#D000FE"/>
<path d="M43.4209 36.3633C44.3654 36.3733 45.31 36.3742 46.2544 36.3663C46.2143 37.214 46.2256 38.0979 46.2246 38.9494C46.2126 39.8766 46.2115 40.8039 46.2215 41.7311C45.786 41.7274 43.7089 41.6851 43.4392 41.7674L43.426 41.7438C42.6894 41.7044 41.64 41.7367 40.8792 41.7361C40.8569 40.8084 40.8544 39.8805 40.8715 38.9528C41.7274 38.9431 42.5834 38.942 43.4394 38.9493L43.4209 36.3633Z" fill="#8802FC"/>
<path d="M43.4209 36.3633C44.3654 36.3733 45.31 36.3742 46.2545 36.3663C46.2143 37.214 46.2256 38.0979 46.2246 38.9494C45.2963 38.9623 44.3677 38.9623 43.4394 38.9493L43.4209 36.3633Z" fill="#D000FE"/>
<path d="M40.8715 38.9536C41.7274 38.9439 42.5834 38.9428 43.4394 38.95C43.4461 39.7385 43.4886 40.9939 43.426 41.7446C42.6894 41.7052 41.64 41.7374 40.8792 41.7368C40.8569 40.8092 40.8544 39.8812 40.8715 38.9536Z" fill="#FEFEFE"/>
<path d="M51.5749 38.9458C51.5702 39.8353 51.5863 40.8373 51.5539 41.7199C50.666 41.7202 49.6721 41.698 48.793 41.728C48.8036 40.8058 48.7943 39.8688 48.7937 38.9453C49.7207 38.9577 50.6478 38.9578 51.5749 38.9458Z" fill="#8802FC"/>
<path d="M46.2542 36.3657C47.0807 36.3663 47.9481 36.3804 48.7712 36.3633C48.777 37.2134 48.7941 38.0931 48.7714 38.9403C47.9767 38.9417 47.0037 38.9159 46.2244 38.9488C46.2254 38.0973 46.214 37.2134 46.2542 36.3657Z" fill="#8802FC"/>
<path d="M43.4388 41.7653C43.7085 41.683 45.7855 41.7253 46.2211 41.729C47.0781 41.7424 47.9353 41.7423 48.7924 41.7289C48.7799 42.6562 48.7789 43.5836 48.7892 44.511C48.7979 45.3682 48.7981 46.2256 48.7899 47.0829L46.2295 47.0833C46.2066 46.2381 46.2037 45.3925 46.2209 44.5471L46.2077 44.5236C45.4139 44.4806 44.2691 44.5167 43.448 44.5162C43.4245 43.5994 43.4214 42.6822 43.4388 41.7653Z" fill="#8802FC"/>
<path d="M43.4388 41.7653C43.7085 41.683 45.7855 41.7253 46.2211 41.729C46.2278 42.5188 46.2703 43.7712 46.2077 44.5236C45.4139 44.4806 44.2691 44.5167 43.448 44.5162C43.4245 43.5994 43.4214 42.6822 43.4388 41.7653Z" fill="#FEFEFE"/>
<path d="M46.221 44.5499C46.4872 44.4689 48.3733 44.5099 48.7893 44.5137C48.798 45.371 48.7982 46.2284 48.79 47.0857L46.2296 47.0861C46.2067 46.2409 46.2038 45.3952 46.221 44.5499Z" fill="#FEFEFE"/>
<path d="M54.5702 41.7311C54.5617 42.656 54.5579 43.5809 54.559 44.5058L51.5742 44.5127C51.5854 43.5911 51.5756 42.6535 51.5748 41.7305C52.5732 41.7428 53.5719 41.743 54.5702 41.7311Z" fill="#8802FC"/>
<path d="M51.6047 36.3661C52.5674 36.3669 53.5909 36.3859 54.549 36.3633C54.563 37.2222 54.563 38.0813 54.5501 38.9403C53.5705 38.941 52.551 38.927 51.5749 38.9483C51.5759 38.097 51.5648 37.2137 51.6047 36.3661Z" fill="#8802FC"/>
<path d="M48.7891 44.5123C49.7173 44.5256 50.6458 44.5255 51.5741 44.5117L51.5584 47.0725C50.6695 47.0964 49.689 47.0752 48.7898 47.0842C48.7979 46.2269 48.7977 45.3695 48.7891 44.5123Z" fill="#8802FC"/>
<path d="M57.1383 38.9458L57.1271 41.7205L54.5703 41.7279C54.581 40.8055 54.5719 39.8689 54.5708 38.9453C55.4268 38.9574 56.2823 38.9575 57.1383 38.9458Z" fill="#8802FC"/>
<path d="M57.1676 36.3664C58.0621 36.3671 59.0069 36.3836 59.8972 36.3633C59.9063 37.2226 59.91 38.082 59.909 38.9414C59.9245 39.8717 59.9298 40.8022 59.9255 41.7325C59.0861 41.7313 57.9396 41.7662 57.127 41.7233L57.1382 38.9487C57.1393 38.0973 57.128 37.2141 57.1676 36.3664Z" fill="#D000FE"/>
<path d="M57.1678 36.3664C58.0623 36.3671 59.0071 36.3836 59.8974 36.3633C59.9065 37.2226 59.9102 38.082 59.9092 38.9414L57.1384 38.9487C57.1395 38.0973 57.1282 37.2141 57.1678 36.3664Z" fill="#8802FC"/>
<path d="M51.5743 44.5108L54.559 44.5039C54.574 45.3628 54.5794 46.2218 54.5756 47.0808C53.5784 47.0785 52.5531 47.0891 51.5586 47.0716L51.5743 44.5108Z" fill="#D000FE"/>
<path d="M54.571 41.73L57.1278 41.7227C57.1433 42.6531 57.1486 43.5836 57.1443 44.5141C56.3664 44.5128 55.3146 44.544 54.5597 44.5048C54.5587 43.5799 54.5624 42.6549 54.571 41.73Z" fill="#D000FE"/>
<path d="M59.8975 36.3639C60.7658 36.3727 61.6346 36.3699 62.5029 36.3555C62.4879 37.2207 62.4847 38.086 62.4933 38.9513C61.7191 38.9501 60.6593 38.9818 59.9092 38.942C59.9103 38.0827 59.9066 37.2232 59.8975 36.3639Z" fill="#D000FE"/>
<path d="M40.8835 36.3633C41.7071 36.3661 42.6026 36.3863 43.4205 36.3636L43.439 38.9496C42.583 38.9423 41.727 38.9434 40.8711 38.9531L40.8835 36.3633Z" fill="#8802FC"/>
<path d="M48.7744 55.1758C49.6216 55.2459 50.7435 55.1999 51.6186 55.2073C51.5571 55.9633 51.5871 57.0274 51.5984 57.808C51.5849 58.7218 51.5856 59.6355 51.6003 60.5493C50.6617 60.5643 49.723 60.5659 48.7844 60.5541C48.7881 59.6345 48.7858 58.7148 48.7774 57.7951L48.7744 55.1758Z" fill="#D000FE"/>
<path d="M48.7744 55.1758C49.6216 55.2459 50.7435 55.1999 51.6186 55.2073C51.5571 55.9633 51.5871 57.0274 51.5984 57.808C50.6927 57.7716 49.6858 57.7887 48.7774 57.7951L48.7744 55.1758Z" fill="#8802FC"/>
<path d="M51.6008 60.5469C51.5845 61.3467 51.5438 62.8527 51.6298 63.6124C51.0289 63.5429 49.3616 63.5584 48.7666 63.6183C48.8186 62.7136 48.7835 61.481 48.7848 60.5517C49.7235 60.5635 50.6622 60.5619 51.6008 60.5469Z" fill="#8802FC"/>
<path d="M35.5234 65.9151C36.0723 65.9194 37.5939 65.9569 38.0952 65.875L38.0987 65.9001C39.0337 65.9108 39.9689 65.9092 40.9039 65.8964C41.7272 65.8975 42.6011 65.913 43.4204 65.8937C44.365 65.9044 45.3096 65.9055 46.2541 65.8969C47.0818 65.8975 47.9455 65.9114 48.7702 65.8948C49.7148 65.9044 50.6595 65.905 51.6042 65.8975C52.5655 65.898 53.5914 65.9178 54.5474 65.8937C55.4211 65.9034 56.2948 65.9044 57.1684 65.8969C57.1224 66.8728 57.1395 67.9251 57.1385 68.9079L57.1224 71.4679C56.298 71.4893 55.4024 71.4732 54.5726 71.4743C53.5679 71.4791 52.5628 71.4764 51.558 71.4679C50.6648 71.4909 49.6939 71.4732 48.7944 71.4743C47.9323 71.4781 47.0702 71.4759 46.2082 71.4679C45.3129 71.4904 44.3454 71.4732 43.4444 71.4743C42.5823 71.4786 41.7202 71.4764 40.8581 71.4674C39.9681 71.492 38.991 71.4732 38.0941 71.4743H35.5242L35.5266 68.894C35.5403 67.9123 35.5254 66.899 35.5234 65.9151Z" fill="#D000FE"/>
<path d="M54.548 65.8945C55.4217 65.9042 56.2953 65.9052 57.169 65.8977C57.123 66.8736 57.1401 67.9259 57.139 68.9087L57.123 71.4687C56.2985 71.4901 55.4029 71.474 54.5732 71.4751C53.5684 71.4799 52.5634 71.4773 51.5586 71.4687L51.575 68.9082C51.576 67.9265 51.5586 66.8736 51.6048 65.8983C52.5661 65.8988 53.592 65.9186 54.548 65.8945Z" fill="#D000FE"/>
<path d="M51.6044 65.8983C52.5657 65.8988 53.5916 65.9186 54.5477 65.8945C54.5637 66.8966 54.5648 67.8986 54.5498 68.9002C53.5579 68.8975 52.5663 68.9002 51.5747 68.9082C51.5757 67.9265 51.5583 66.8736 51.6044 65.8983Z" fill="#8802FC"/>
<path d="M57.1382 68.9073L57.1222 71.4673C56.2977 71.4887 55.4021 71.4726 54.5724 71.4737C54.5804 70.6215 54.5724 69.7596 54.5713 68.9062C55.4268 68.9186 56.2828 68.9191 57.1382 68.9073Z" fill="#8802FC"/>
<path d="M48.77 65.8945C49.7147 65.9042 50.6594 65.9047 51.604 65.8972C51.5578 66.8725 51.5752 67.9254 51.5743 68.9071L51.5578 71.4676C50.6646 71.4906 49.6937 71.473 48.7942 71.474C47.9322 71.4778 47.0701 71.4756 46.208 71.4676L46.2243 68.9076C46.2253 67.9249 46.2081 66.873 46.254 65.8967C47.0817 65.8972 47.9454 65.9111 48.77 65.8945Z" fill="#D000FE"/>
<path d="M46.2547 65.8967C47.0824 65.8972 47.9461 65.9111 48.7707 65.8945C48.7864 66.8961 48.7868 67.8981 48.772 68.8996C47.9766 68.9007 47.0052 68.875 46.225 68.9076C46.226 67.9249 46.2088 66.873 46.2547 65.8967Z" fill="#8802FC"/>
<path d="M51.5742 68.9068L51.5577 71.4673C50.6645 71.4903 49.6936 71.4726 48.7941 71.4737C48.8027 70.622 48.7944 69.759 48.793 68.9062C49.72 68.9191 50.6471 68.9196 51.5742 68.9068Z" fill="#8802FC"/>
<path d="M35.5234 65.9151C36.0723 65.9194 37.5939 65.9569 38.0952 65.875L38.0987 65.9001C39.0337 65.9108 39.9689 65.9092 40.9039 65.8964C40.8587 66.8738 40.8756 67.9246 40.8745 68.9079L40.8581 71.4674C39.9681 71.492 38.991 71.4732 38.0941 71.4743H35.5242L35.5266 68.894C35.5403 67.9123 35.5254 66.899 35.5234 65.9151Z" fill="#D000FE"/>
<path d="M35.5234 65.9151C36.0723 65.9194 37.5939 65.9569 38.0952 65.875L38.0987 65.9001C38.0755 66.8722 38.1105 67.9551 38.071 68.8999C37.2477 68.9015 36.3433 68.9213 35.5266 68.894C35.5403 67.9123 35.5254 66.899 35.5234 65.9151Z" fill="#8802FC"/>
<path d="M40.8744 68.9073L40.858 71.4668C39.968 71.4914 38.9909 71.4726 38.0939 71.4737C38.1033 70.622 38.0944 69.759 38.0928 68.9062C39.0199 68.9191 39.9472 68.9196 40.8744 68.9073Z" fill="#8802FC"/>
<path d="M40.9037 65.8972C41.727 65.8983 42.6009 65.9138 43.4202 65.8945C43.4353 66.8966 43.4357 67.8986 43.4213 68.9007C42.6261 68.9018 41.6544 68.8761 40.8743 68.9087C40.8754 67.9254 40.8585 66.8746 40.9037 65.8972Z" fill="#8802FC"/>
<path d="M46.2246 68.9073L46.2083 71.4673C45.3131 71.4898 44.3455 71.4726 43.4445 71.4737C43.4536 70.622 43.4448 69.759 43.4434 68.9062C44.3704 68.9191 45.2976 68.9191 46.2246 68.9073Z" fill="#8802FC"/>
<path d="M62.5186 65.8992C63.2874 65.8992 64.5511 65.9426 65.268 65.8789L65.276 65.9062C66.1347 65.9196 66.9934 65.9164 67.8515 65.8971C67.8387 66.8644 67.8189 67.9585 67.8445 68.9279C67.8408 69.7737 67.8306 70.6292 67.8365 71.4739L65.2717 71.4766C64.3387 71.4804 63.4051 71.4782 62.4715 71.4697C61.6471 71.4911 60.7526 71.475 59.9223 71.4761C58.9887 71.4804 58.0551 71.4782 57.1221 71.4697L57.1381 68.9097C57.1392 67.9269 57.1221 66.8745 57.1681 65.8987C58.061 65.8998 59.0079 65.9164 59.8971 65.896C60.7708 65.9051 61.645 65.9062 62.5186 65.8992Z" fill="#D000FE"/>
<path d="M62.5188 65.8992C63.2876 65.8992 64.5512 65.9426 65.2681 65.8789L65.2762 65.9062C66.1348 65.9196 66.9935 65.9164 67.8516 65.8971C67.8388 66.8644 67.819 67.9585 67.8447 68.9279C67.8409 69.7737 67.8308 70.6292 67.8367 71.4739L65.2719 71.4766C64.3388 71.4804 63.4053 71.4782 62.4717 71.4697L62.4883 68.9097C62.4893 67.9349 62.4695 66.8649 62.5188 65.8992Z" fill="#D000FE"/>
<path d="M62.5189 65.8992C63.2877 65.8992 64.5514 65.9426 65.2683 65.8789L65.2763 65.9062C65.2073 66.8446 65.2848 67.9349 65.249 68.9011C64.3518 68.9017 63.3797 68.8835 62.4884 68.9097C62.4895 67.9349 62.4697 66.8649 62.5189 65.8992Z" fill="#8802FC"/>
<path d="M65.2715 68.9062L67.8454 68.9255C67.8416 69.7713 67.8315 70.6268 67.8373 71.4716L65.2726 71.4743C65.2817 70.622 65.2731 69.7596 65.2715 68.9062Z" fill="#8802FC"/>
<path d="M57.1689 65.8972C58.0618 65.8983 59.0088 65.9149 59.898 65.8945C59.914 66.8961 59.9151 67.8981 59.9001 68.8996C59.0018 68.9002 58.0314 68.8825 57.139 68.9082C57.14 67.9254 57.1229 66.873 57.1689 65.8972Z" fill="#8802FC"/>
<path d="M62.4888 68.9073L62.4722 71.4673C61.6478 71.4887 60.7533 71.4726 59.9229 71.4737C59.9315 70.622 59.9229 69.759 59.9219 68.9062C60.7773 68.9186 61.6333 68.9191 62.4888 68.9073Z" fill="#8802FC"/>
</svg>
